<svg width="34" height="34" viewBox="0 0 34 34" fill="none" xmlns="http://www.w3.org/2000/svg">
<path d="M1 17.3262C1 13.6648 1 11.834 1.83072 10.3164C2.66144 8.79874 4.17912 7.85682 7.21445 5.97301L10.4144 3.98699C13.623 1.99566 15.2274 1 17 1C18.7726 1 20.377 1.99566 23.5856 3.98699L26.7856 5.97299C29.821 7.85682 31.3386 8.79874 32.1693 10.3164C33 11.834 33 13.6648 33 17.3262V19.76C33 26.0013 33 29.1221 31.1254 31.061C29.251 33 26.2339 33 20.2 33H13.8C7.76602 33 4.74904 33 2.87451 31.061C1 29.1221 1 26.0013 1 19.76V17.3262Z" stroke="#D3D3D3" stroke-width="2"/>
<path d="M21.8 26.6H12.2" stroke="#D3D3D3" stroke-width="2" stroke-linecap="round"/>
</svg>
