<svg width="32" height="32" viewBox="0 0 32 32" fill="none" xmlns="http://www.w3.org/2000/svg">
<path d="M2.66666 21.3333V5.33333C2.66666 4.62609 2.94762 3.94781 3.44771 3.44772C3.94781 2.94762 4.62609 2.66667 5.33333 2.66667H20" stroke="#D3D3D3" stroke-width="2" stroke-linecap="round" stroke-linejoin="round"/>
<path d="M29.3333 24H14.6667C13.9594 24 13.2811 24.281 12.781 24.781C12.281 25.2811 12 25.9594 12 26.6667M12 26.6667C12 27.3739 12.281 28.0522 12.781 28.5523C13.2811 29.0524 13.9594 29.3333 14.6667 29.3333H28.6667C28.8435 29.3333 29.013 29.2631 29.1381 29.1381C29.2631 29.013 29.3333 28.8435 29.3333 28.6667V8.66667C29.3333 8.48986 29.2631 8.32029 29.1381 8.19526C29.013 8.07024 28.8435 8 28.6667 8H14.6667C13.9594 8 13.2811 8.28095 12.781 8.78105C12.281 9.28115 12 9.95942 12 10.6667V26.6667Z" stroke="#D3D3D3" stroke-width="2" stroke-linecap="round" stroke-linejoin="round"/>
<path d="M6.66666 18.6667H5.33333C4.62609 18.6667 3.94781 18.9476 3.44771 19.4477C2.94762 19.9478 2.66666 20.6261 2.66666 21.3333C2.66666 22.0406 2.94762 22.7189 3.44771 23.219C3.94781 23.719 4.62609 24 5.33333 24H6.66666" stroke="#D3D3D3" stroke-width="2" stroke-linecap="round" stroke-linejoin="round"/>
</svg>
